<?xml version="1.0" standalone="yes"?>
<svg xmlns="http://www.w3.org/2000/svg" width="513" height="512">
<path style="fill:#e9e9e7; stroke:none;" d="M0 0L0 512L513 512L513 0L0 0z"/>
<path style="fill:#818181; stroke:none;" d="M118 35.4283C105.792 37.1772 94.3197 41.2938 84 48.0787C51.8902 69.1901 40.0404 109.852 49.6049 146C51.8891 154.633 56.3243 163.709 61.4398 171C64.4663 175.313 68.9171 179.151 71.0656 184C72.7253 187.746 72.5148 192.135 73.9514 196C76.9681 204.117 81.2461 211.666 83.7948 220C89.3212 238.071 89.8381 257.49 86.8056 276C84.5909 289.518 78.6163 301.474 73.5833 314C72.0215 317.887 72.5373 322.315 70.5664 326C65.1325 336.158 56.9332 344.025 52.4522 355C41.8167 381.048 44.8423 414.633 60.7461 438C72.2472 454.898 90.5559 468.825 111 472.537C125.063 475.091 139.767 474 154 474L337 474L396 474C405.653 474 416.505 475.372 426 473.532C434.715 471.842 441.458 462.962 440.775 454C440.394 449.002 437.354 444.505 435.427 440C432.383 432.879 429.761 425.426 427.569 418C422.576 401.082 424.019 383.16 426.156 366C427.75 353.198 433.876 341.828 438.55 330C440.198 325.829 440.332 320.917 442.432 317C447.529 307.495 455.391 300.261 459.547 290C465.029 276.468 466.339 262.445 465.985 248C465.63 233.482 460.705 219.195 452.946 207C449.689 201.881 444.576 197.351 441.885 192C440.216 188.682 440.869 184.531 439.532 181C437.218 174.886 433.898 169.18 431.698 163C427.292 150.62 424.986 138.093 424.09 125C422.976 108.743 426.523 91.0119 432.604 76C436.856 65.5044 445.078 53.9146 437.351 43.0038C431.223 34.3515 422.473 35 413 35L359 35L199 35L147 35C137.488 35 127.427 34.0778 118 35.4283z"/>
<path style="fill:#c81330; stroke:none;" d="M395 169C394.498 158.011 390.225 147.09 389.17 136C387.048 113.703 390.14 93.4771 396 72L161 72C134.673 72 105.593 68.4322 89.24 94C86.6736 98.0125 84.5657 102.33 83.5139 107C77.1857 135.095 92.8699 165.011 123 168.714C133.104 169.955 143.825 169 154 169L214 169L395 169z"/>
<path style="fill:#818181; stroke:none;" d="M125 102L125 139L350 139L350 102L125 102z"/>
<path style="fill:#e9e9e7; stroke:none;" d="M117 206C119.077 218.069 123.06 229.577 123.91 242C125.368 263.29 121.252 282.398 117 303L297 303C326.769 303 357.31 304.991 387 302.91C413.318 301.066 432.066 277.958 430.961 252C430.111 232.035 416.446 213.415 397 207.924C384.897 204.506 371.45 206 359 206L117 206z"/>
<path style="fill:#818181; stroke:none;" d="M163 236L163 273L388 273L388 236L163 236z"/>
<path style="fill:#033ea4; stroke:none;" d="M395 437C394.791 432.419 393.164 428.452 392.311 424C390.235 413.161 388.523 402.038 388.039 391C387.282 373.709 392.523 357.832 395 341L158 341C144.998 341 129.727 338.802 117 341.518C98.8212 345.396 84.6421 362.94 82.2894 381C78.8082 407.722 96.453 434.164 124 436.83C134.173 437.815 144.781 437 155 437L215 437L395 437z"/>
<path style="fill:#818181; stroke:none;" d="M125 370L125 407L350 407L350 370L125 370z"/>
</svg>
