<?xml version="1.0" standalone="yes"?>
<svg xmlns="http://www.w3.org/2000/svg" width="1504" height="512">
<path style="fill:#e9e9e7; stroke:none;" d="M0 0L0 512L1504 512L1504 0L0 0z"/>
<path style="fill:#828181; stroke:none;" d="M118 35.4283C105.49 37.2204 93.3909 41.4474 83 48.7215C52.1034 70.3503 39.0107 111.074 49.9005 147C52.4194 155.31 56.4522 163.891 61.4398 171C64.4663 175.313 68.9171 179.151 71.0656 184C72.7253 187.746 72.5148 192.135 73.9514 196C76.9681 204.117 81.2461 211.666 83.7948 220C89.3212 238.071 89.8381 257.49 86.8056 276C84.5703 289.643 78.2756 301.314 73.4676 314C71.9913 317.895 72.5346 322.32 70.5664 326C65.1325 336.158 56.9332 344.025 52.4522 355C41.8108 381.062 44.8434 414.637 60.7461 438C72.2482 454.898 90.5552 468.825 111 472.537C125.063 475.091 139.767 474 154 474L337 474L396 474C405.653 474 416.505 475.372 426 473.532C434.715 471.842 441.458 462.962 440.775 454C440.42 449.34 437.706 445.176 435.862 441C433.153 434.867 430.812 428.457 429.012 422C423.725 403.043 423.745 385.354 426.156 366C427.75 353.198 433.876 341.828 438.55 330C440.198 325.829 440.332 320.917 442.432 317C447.529 307.495 455.391 300.261 459.547 290C465.029 276.468 466.339 262.445 465.985 248C465.63 233.482 460.705 219.195 452.946 207C449.689 201.881 444.576 197.351 441.885 192C440.216 188.682 440.869 184.531 439.532 181C437.218 174.886 433.898 169.18 431.698 163C427.292 150.62 424.986 138.093 424.09 125C422.985 108.872 426.57 90.8958 432.604 76C436.856 65.5044 445.078 53.9146 437.351 43.0038C431.223 34.3515 422.473 35 413 35L359 35L199 35L147 35C137.488 35 127.427 34.0778 118 35.4283z"/>
<path style="fill:#c9122f; stroke:none;" d="M395 169C394.664 161.643 391.971 154.232 390.514 147C388.72 138.096 388.237 128.065 388.015 119C387.629 103.268 392.738 88.3717 395 73L162 73C147.79 73 130.87 70.4976 117 73.6805C105.973 76.2111 96.2975 83.8206 90.0285 93C87.2748 97.0322 85.0004 101.249 83.76 106C76.3883 134.238 92.8028 165.003 123 168.714C133.104 169.955 143.825 169 154 169L214 169L395 169z"/>
<path style="fill:#828181; stroke:none;" d="M125 102L125 139L350 139L350 102L125 102M831 161C823.258 155.054 815.845 152.228 806 153.17C797.118 154.019 789.685 157.206 783 163.174C765.588 178.718 759.093 203.617 769.81 225C781.141 247.606 810.956 261.889 832 243C834.652 253.917 854.266 255.577 861.297 247.581C864.039 244.463 863.98 239.893 863.999 236L864 216L864 145L864 124C864 120.402 864.411 116.414 862.991 113.015C858.873 103.162 837.798 103.027 832.839 112.094C830.098 117.107 831 123.496 831 129L831 161M1108 224L1108 173L1108 139C1108 133.315 1109.03 126.396 1106.85 121.015C1103.02 111.539 1084 110.176 1077.39 117.228C1071.41 123.614 1074 136.937 1074 145L1074 219C1074 227.186 1071.2 242.067 1077.57 248.431C1081.04 251.902 1086.43 251.977 1091 251.999C1100.67 252.046 1110.33 252 1120 252C1132.33 252 1144.67 252.059 1157 251.999C1161.64 251.977 1167.95 252.051 1170.91 247.772C1175.26 241.478 1174.04 227.441 1165.98 224.943C1159.79 223.022 1152.41 224 1146 224L1108 224M555 174C570.283 191.661 583.615 211.319 597.627 230C602.568 236.589 608.638 249.017 617.001 251.427C624.023 253.452 637.541 253.24 641.427 245.895C645.65 237.916 643 223.819 643 215L643 149C643 140.349 645.188 128.04 641.347 120.044C637.001 110.996 615.763 111.406 611.179 120.043C609.332 123.523 610 128.2 610 132L610 156L610 193C594.358 175.967 581.467 155.669 567.849 137C562.56 129.749 556.145 117.347 547 114.724C539.853 112.674 527.414 112.587 523.457 120.043C521.54 123.655 522 128.053 522 132L522 152L522 216C522 224.695 519.851 236.814 523.148 244.985C526.924 254.342 547.567 255.256 552.911 246.891C555.332 243.101 554.998 238.295 555 234L555 211L555 174M691 213L728 213C734.659 213 741.317 213.539 746.815 209.061C752.789 204.195 754.071 196.255 753.996 189C753.748 165.026 732.1 150.901 710 150.04C690.137 149.266 669.443 160.116 660.373 178C646.419 205.517 659.912 243.025 690 251.958C704.622 256.299 721.51 255.672 736 251.279C747.731 247.721 752.216 237.745 745.647 227.015C739.837 217.524 731.351 222.215 723 224.391C711.467 227.397 695.419 225.991 691 213M912 213L949 213C955.954 213 963.255 213.498 968.892 208.606C974.545 203.701 975.008 195.935 975 189C974.97 164.19 952.055 149.728 929 150.019C910.177 150.256 891.335 160.206 882.324 177C867.274 205.048 881.596 244.228 913 252.711C926.441 256.341 944.929 256.571 958 251.265C968.136 247.15 973.66 238.53 967.633 228.001C962.248 218.594 954.63 221.414 946 223.622C934.093 226.668 916.835 227.183 912 213M1210 213L1248 213C1254.67 213 1261.56 213.398 1266.9 208.657C1273.38 202.898 1274.28 193.01 1273.13 185C1269.84 162.039 1248.99 149.741 1227 150.019C1208.28 150.255 1189.27 160.283 1180.32 177C1165.81 204.121 1179.09 244.17 1210 252.24C1224.64 256.061 1241.57 256.247 1256 251.134C1266.97 247.247 1271.84 238.61 1265.64 228.001C1259.66 217.772 1252.03 222.067 1243 224.39C1231.61 227.323 1214.4 225.897 1210 213M1319 213L1356 213C1362.77 213 1369.52 213.583 1374.96 208.775C1388.96 196.384 1380.81 171.813 1368.99 161.185C1360.83 153.858 1348.83 150.389 1338 150.043C1319.7 149.458 1300.27 158.209 1290.47 174C1273.45 201.425 1285.73 243.171 1318 252.215C1332.55 256.294 1349.62 255.719 1364 251.275C1373.84 248.234 1379.63 240.068 1375.09 230.001C1373.3 226.009 1370.52 222.203 1366 221.279C1360.59 220.175 1356 223.003 1351 224.405C1340.14 227.449 1322.15 226.195 1319 213M1021 162C1019.77 159.221 1018.49 156.529 1015.9 154.742C1009 149.99 992.731 150.38 989.009 159.043C986.471 164.951 988 173.683 988 180L988 225C988 231.389 986.168 241.314 989.858 246.895C994.729 254.262 1014.11 254.663 1018.86 246.891C1021.33 242.851 1021 237.535 1021 233L1021 206C1021 200.661 1020.08 194.585 1023.57 190.093C1034.14 176.499 1051.13 194.848 1059.91 179.995C1061.35 177.574 1062.12 174.718 1062.76 172C1063.37 169.403 1063.97 166.679 1063.66 164C1062.88 157.389 1057.9 154.473 1052 152.885C1039.69 149.574 1030.29 153.527 1021 162M1424 151.425C1415.26 152.615 1406.47 154.994 1400.53 162.093C1387.43 177.748 1396.27 203.359 1413 211.752C1420.87 215.7 1428.68 216.679 1437 219.058C1438.95 219.616 1442.79 220.98 1441.79 223.765C1440.42 227.586 1433.12 227.168 1430 226.906C1421.24 226.17 1408.94 213.328 1400.18 219.603C1395.11 223.242 1388.93 233.757 1392.18 239.957C1393.99 243.398 1397.69 245.09 1401 246.752C1415.28 253.92 1430.31 255.481 1446 252.678C1454.68 251.129 1464.17 247.445 1469.35 239.999C1478.46 226.899 1475.77 202.877 1461 195.274C1452.36 190.827 1443.31 189.803 1434 187.71C1431.08 187.054 1426.15 185.526 1425.63 181.975C1424.99 177.586 1431.09 177.055 1434 177.005C1437.79 176.94 1441.37 177.183 1445 178.36C1450.46 180.13 1456.34 184.003 1461.91 180.258C1469.62 175.069 1473.15 162.599 1464 157.414C1452.42 150.858 1436.94 149.663 1424 151.425z"/>
<path style="fill:#e9e9e7; stroke:none;" d="M691 196L704 196C706.996 196 710.005 196.079 712.999 195.985C719.778 195.771 724.093 189.197 718.427 183.649C708.711 174.133 691.792 184.201 691 196M912 196L926 196C928.987 196 932.017 196.144 934.999 195.956C942.043 195.513 945.425 188.613 939.772 183.419C929.877 174.329 913.265 184.354 912 196M1210 196L1224 196C1226.99 196 1230.02 196.143 1233 195.956C1240.08 195.512 1243.62 188.66 1237.77 183.433C1227.86 174.571 1211.29 184.401 1210 196M1318 196L1332 196C1334.99 196 1338.01 196.11 1341 195.981C1348.05 195.675 1351.8 188.585 1345.85 183.433C1335.6 174.556 1320.06 184.649 1318 196M808 186.858C788.693 194.687 800.527 225.487 820 217.852C840.057 209.987 827.937 178.773 808 186.858M117 206C119.077 218.069 123.06 229.577 123.91 242C125.368 263.29 121.252 282.398 117 303L297 303C326.769 303 357.31 304.991 387 302.91C413.318 301.066 432.066 277.958 430.961 252C430.111 232.035 416.446 213.415 397 207.924C384.897 204.506 371.45 206 359 206L117 206z"/>
<path style="fill:#828181; stroke:none;" d="M163 236L163 273L388 273L388 236L163 236z"/>
<path style="fill:#ee6b24; stroke:none;" d="M564 350L546 350L546 354L559 354C559 357.879 559.487 362.124 558.852 365.956C557.364 374.94 542.345 372.491 537.004 369.03C521.337 358.879 527.382 327.966 548 330.174C553.644 330.778 557.858 334.054 563 336C564.37 326.331 551.073 324.943 544 325.005C531.88 325.111 522.623 335.004 522.04 347C521.184 364.617 530.55 377.377 549 376.985C552.939 376.901 559.468 376.261 562.397 373.272C564.247 371.385 563.982 368.43 563.999 366L564 350M665 346C662.54 343.807 660.213 341.804 657 340.804C631.371 332.824 630.76 383.876 657 376.057C660.247 375.09 662.516 373.209 665 371C665.242 374.098 668.068 379.162 670.397 373.847C671.963 370.274 671 364.823 671 361L671 336C671 333.351 671.79 328.838 669.977 326.623C667.846 324.02 665.53 326.815 665.148 329.059C664.231 334.445 665 340.538 665 346M745 346C742.235 342.945 739.266 340.762 735 340.394C718.729 338.989 712.372 361.11 722.228 371.895C727.84 378.037 739.761 379.078 744 371C744.893 372.919 748.124 379.097 750.397 374.663C752.08 371.381 751 365.595 751 362C751 352.006 751.184 341.993 750.995 332.001C750.949 329.559 748.374 321.727 745.603 327.323C744.287 329.979 745 334.125 745 337L745 346M788 355C793.529 355 799.44 354.156 803.816 358.228C808.567 362.65 811.17 373.215 817.127 375.824C821.361 377.679 820.185 371.926 819.206 369.999C816.275 364.231 812.345 358.761 808 354C818.166 350.98 824.924 337.768 815.786 329.394C810.241 324.312 801.945 325 795 325C791.849 325 785.261 323.784 783.028 326.603C781.376 328.689 782.001 332.531 782 335L782 355C782 359.997 781.91 365.003 782.005 369.999C782.038 371.753 781.775 374.764 783.584 375.824C786.087 377.29 787.555 373.809 787.852 371.981C788.733 366.557 788 360.493 788 355M933 346C930.553 343.819 928.213 341.771 925 340.808C899.179 333.068 898.884 383.807 925 376.057C928.247 375.094 930.518 373.208 933 371C933.242 374.098 936.068 379.162 938.397 373.847C939.963 370.274 939 364.823 939 361L939 336C938.999 333.27 939.696 328.908 937.826 326.623C935.715 324.043 933.52 326.856 933.148 329.059C932.238 334.449 933 340.535 933 346z"/>
<path style="fill:#e9e9e7; stroke:none;" d="M788 330L788 350C794.35 350 803.106 351.519 808.892 348.427C815.313 344.997 815.464 334.885 808.956 331.573C803.027 328.554 794.456 330 788 330z"/>
<path style="fill:#ee6b24; stroke:none;" d="M581 346C580.85 344.079 578.862 337.77 576.599 342.337C575.524 344.506 576.001 347.66 576 350L576 368C576.004 370.148 575.363 374.443 577.545 375.824C580.391 377.626 580.913 372.535 580.981 370.995C581.295 363.855 579.194 354.997 584.533 349.228C586.621 346.973 595.76 345.955 595.079 342.274C594.73 340.393 592.387 340.535 590.981 340.728C586.95 341.283 583.978 343.42 581 346M601 349C608.06 347.746 618.467 340.84 622.397 350.98C623.02 352.589 622.945 354.313 623 356C619.033 356 614.935 355.719 611 356.301C608.986 356.599 606.889 357.087 605.044 357.97C599.459 360.643 598.45 368.168 602.434 372.786C607.912 379.138 617.986 377.941 622 371C623.562 375.07 627.722 378.936 628.852 371.981C630.039 364.672 630.167 352.674 626.547 346.044C621.799 337.348 601.87 338.052 601 349M710 368C701.314 370.483 692.405 375.614 686.839 364.99C685.817 363.039 685.381 361.137 685 359L711 359C710.959 354.168 710.574 349.122 707.351 345.213C700.885 337.369 688.257 339.289 682.653 347.04C679.556 351.322 679.751 356.947 680.043 362C680.565 371.045 688.171 377.116 697 376.946C702.732 376.835 711.012 374.994 710 368M859 368C850.314 370.483 841.405 375.614 835.839 364.99C834.817 363.039 834.381 361.137 834 359L860 359C859.959 354.168 859.574 349.122 856.351 345.213C850 337.509 837.209 339.417 831.653 347.043C828.546 351.308 828.752 356.96 829.043 362C829.565 371.045 837.171 377.116 846 376.946C851.732 376.835 860.012 374.994 859 368M869 349C876.06 347.746 886.467 340.84 890.397 350.98C891.02 352.589 890.945 354.313 891 356C887.033 356 882.935 355.719 879 356.301C876.986 356.599 874.889 357.087 873.044 357.97C867.459 360.643 866.45 368.168 870.434 372.786C875.912 379.138 885.986 377.941 890 371C891.562 375.07 895.722 378.936 896.852 371.981C898.042 364.652 898.255 352.653 894.558 346.044C889.738 337.429 869.875 337.988 869 349M978 368C969.314 370.483 960.405 375.614 954.839 364.99C953.817 363.039 953.381 361.137 953 359L979 359C978.984 353.326 978.475 347.573 973.787 343.638C962.927 334.523 946.571 344.638 947.21 358C947.621 366.592 951.82 375.028 961 376.671C967.202 377.78 979.193 376.245 978 368M1007 340C1002.09 340.955 998.127 342.098 994 345C993.373 342.936 990.629 338.382 988.603 342.337C987.506 344.477 988.001 347.681 988 350L988 367C988.001 369.346 987.323 373.415 989.023 375.338C990.959 377.527 993.167 374.818 993.682 372.941C995.501 366.311 991.953 358.335 995.179 352.005C998.282 345.914 1008.71 347.346 1007 340M1012 368C1010.33 379.546 1033.42 378.857 1037.82 370.895C1045.17 357.618 1024.11 358.925 1019.66 352.606C1015.22 346.296 1026.25 344.802 1030 346.209C1032.38 347.103 1034.56 348.244 1037 349C1038.7 337.124 1017.3 338.507 1013.03 347.015C1006.51 360.024 1026.98 358.552 1031.34 364.429C1036.08 370.826 1023.59 372.259 1020 371.035C1017.28 370.105 1014.78 368.8 1012 368z"/>
<path style="fill:#033ea4; stroke:none;" d="M395 437C394.791 432.419 393.164 428.452 392.311 424C390.235 413.161 388.523 402.038 388.039 391C387.282 373.709 392.523 357.832 395 341L158 341C144.998 341 129.727 338.802 117 341.518C98.8212 345.396 84.6421 362.94 82.2894 381C78.8082 407.722 96.453 434.164 124 436.83C134.173 437.815 144.781 437 155 437L215 437L395 437z"/>
<path style="fill:#e9e9e7; stroke:none;" d="M651.004 345.654C637.542 349.86 641.986 375.649 656.996 371.566C670.397 367.92 666.109 340.933 651.004 345.654M686 356L706 356C705.224 341.833 686.776 341.833 686 356M730.015 346.028C718.103 352.171 724.583 378.326 738.981 370.821C750.736 364.693 744.373 338.623 730.015 346.028M835 356L855 356C854.224 341.833 835.776 341.833 835 356M918.015 345.743C905.022 350.794 910.916 377.021 925.985 371.106C938.839 366.061 932.861 339.973 918.015 345.743M954 356L974 356C973.224 341.833 954.776 341.833 954 356M623 359C620.285 359.056 617.686 359.328 615 359.73C613.365 359.975 611.595 360.075 610.059 360.738C606.173 362.415 604.863 367.48 608.318 370.397C612.957 374.313 619.854 370.896 621.852 365.986C622.769 363.732 622.89 361.391 623 359M891 359C888.285 359.056 885.686 359.328 883 359.73C881.365 359.975 879.595 360.075 878.059 360.738C874.173 362.415 872.863 367.48 876.318 370.397C880.892 374.258 887.846 370.793 889.852 365.961C890.781 363.724 890.891 361.379 891 359z"/>
<path style="fill:#828181; stroke:none;" d="M125 370L125 407L350 407L350 370L125 370z"/>
</svg>
